<?xml version="1.0" standalone="no"?>
<!DOCTYPE svg PUBLIC "-//W3C//DTD SVG 20010904//EN"
 "http://www.w3.org/TR/2001/REC-SVG-20010904/DTD/svg10.dtd">
<svg version="1.0" xmlns="http://www.w3.org/2000/svg"
 width="3000.000000pt" height="1700.000000pt" viewBox="0 0 3000.000000 1700.000000"
 preserveAspectRatio="xMidYMid meet">

<g transform="translate(0.000000,1700.000000) scale(0.100000,-0.100000)"
fill="#000000" stroke="none">
<path d="M0 13647 l0 -3352 54 2 c66 1 76 7 76 39 0 59 51 95 164 115 88 15
148 8 194 -24 36 -25 38 -26 97 -12 111 27 122 21 207 -105 38 -55 49 -95 62
-218 6 -50 5 -53 -21 -65 -16 -6 -36 -19 -47 -29 -10 -9 -36 -20 -57 -23 -27
-5 -39 -12 -39 -23 0 -12 -3 -13 -12 -4 -16 16 -28 15 -28 -3 0 -8 -7 -15 -15
-15 -8 0 -15 -4 -15 -10 0 -5 -12 -10 -26 -10 -30 0 -61 -25 -41 -33 6 -3 3
-6 -8 -6 -11 -1 -32 -14 -45 -29 -14 -16 -39 -34 -55 -40 -26 -9 -27 -11 -7
-11 30 -1 28 -11 -9 -44 -17 -15 -27 -27 -23 -27 4 0 3 -5 -4 -12 -15 -15 -16
-32 -2 -23 5 3 10 2 10 -4 0 -5 -5 -11 -11 -13 -9 -3 -15 -24 -33 -114 -4 -23
-28 -43 -64 -54 -20 -6 -46 -15 -57 -20 -19 -9 -116 -37 -203 -60 l-42 -11 0
-4704 0 -4705 3340 0 c1837 0 3340 2 3340 5 0 2 -20 27 -45 55 -25 28 -59 79
-77 113 -43 85 -51 211 -20 314 38 125 135 250 273 353 470 350 1238 368 1539
36 79 -88 104 -153 126 -328 19 -159 11 -228 -40 -335 -30 -62 -117 -183 -138
-191 -4 -2 -8 -8 -8 -13 0 -5 914 -9 2304 -9 l2303 0 44 24 c60 33 209 81 316
103 126 25 416 25 533 0 102 -22 181 -49 279 -93 l74 -34 7928 0 7929 0 0
2474 0 2475 -21 3 c-12 2 -29 14 -37 27 -16 24 -16 24 21 19 l37 -4 0 6003 0
6003 -15000 0 -15000 0 0 -3353z m10106 1762 c15 -5 34 -19 41 -29 8 -11 22
-20 32 -20 32 0 60 -33 66 -75 3 -22 8 -115 11 -207 6 -146 5 -170 -9 -192
-10 -14 -17 -32 -17 -39 0 -8 -21 -54 -46 -103 -64 -122 -104 -203 -104 -210
0 -4 -10 -15 -22 -25 -21 -19 -75 -24 -230 -23 -47 0 -94 18 -114 43 -6 8 -14
40 -18 70 -3 31 -7 65 -10 76 -2 11 -7 47 -11 80 -4 32 -9 68 -11 80 -8 38 -6
120 4 145 5 14 24 37 41 52 17 15 33 40 37 55 4 16 14 37 24 48 10 11 27 41
38 68 12 26 25 47 30 47 6 0 13 16 16 35 4 19 13 35 20 35 15 0 48 34 41 42
-3 3 7 17 24 30 23 20 41 26 85 27 30 0 67 -4 82 -10z m10780 -301 c8 -16 13
-28 10 -28 -6 0 -46 66 -46 76 0 10 14 -8 36 -48z m-11862 -64 c3 -9 4 -19 1
-24 -3 -4 6 -11 20 -14 14 -4 25 -10 25 -15 0 -5 12 -12 28 -16 17 -4 32 -17
42 -38 11 -24 25 -35 55 -43 26 -7 47 -21 60 -41 19 -28 56 -53 79 -53 17 0
45 -32 39 -46 -7 -20 -146 -20 -166 1 -8 8 -17 11 -21 8 -3 -4 -6 -2 -6 3 0
14 21 38 46 55 20 13 16 14 -40 17 -114 5 -111 4 -111 40 0 22 -4 31 -12 27
-7 -2 -13 1 -13 7 0 6 -11 8 -29 5 -23 -5 -33 0 -52 21 -13 15 -20 24 -15 20
10 -8 29 9 39 35 6 15 -1 17 -51 18 -31 1 -68 4 -81 8 -23 6 -23 7 -7 24 24
24 161 25 170 1z m13581 -66 c18 -32 32 -58 30 -58 -10 0 -56 70 -70 106 -17
44 -10 35 40 -48z m1746 27 c1 -5 1 -13 0 -17 0 -5 6 -8 15 -8 10 0 14 -6 11
-14 -3 -7 1 -24 10 -37 9 -16 6 -14 -12 6 -24 27 -65 106 -65 123 1 10 39 -41
41 -53z m-15683 0 c17 -9 33 -24 37 -33 4 -14 13 -17 40 -14 28 3 35 1 35 -13
0 -12 5 -15 18 -10 14 5 15 4 5 -6 -7 -7 -13 -24 -12 -38 l1 -26 8 25 c7 22 8
22 9 4 1 -15 12 -24 44 -34 23 -8 43 -14 44 -14 1 -1 4 -13 8 -28 7 -28 8 -27
-50 -29 -37 0 -102 8 -113 15 -7 4 -17 16 -23 28 -8 15 -8 19 1 13 8 -5 11 -1
8 11 -2 14 -15 20 -50 24 -26 3 -50 9 -54 12 -11 12 5 40 26 45 39 10 19 21
-50 28 -53 5 -73 12 -80 25 -12 22 -3 26 66 29 29 1 63 -5 82 -14z m15655 -84
c-2 -6 2 -11 8 -11 5 0 8 -4 5 -9 -3 -5 1 -12 10 -15 8 -3 13 -10 10 -14 -3
-5 6 -24 20 -43 42 -56 48 -77 9 -34 -32 35 -85 123 -85 141 0 3 6 4 13 1 6
-2 11 -10 10 -16z m-20002 -74 c11 -10 23 -17 28 -17 5 0 11 -6 14 -14 4 -10
16 -12 49 -6 56 11 76 -2 124 -82 28 -46 40 -80 46 -123 12 -103 37 -266 43
-274 2 -5 7 -35 10 -68 7 -90 8 -90 -190 -113 -94 -11 -208 -24 -255 -30 -96
-11 -227 -26 -375 -41 -194 -19 -215 -23 -215 -45 0 -10 13 -14 44 -14 53 0
76 -24 76 -80 0 -19 7 -64 15 -100 9 -36 20 -96 25 -135 5 -38 12 -91 16 -117
8 -58 0 -94 -23 -101 -10 -3 -112 -44 -228 -92 -430 -177 -396 -168 -518 -135
-40 10 -88 21 -107 24 -19 2 -75 12 -125 21 -49 9 -99 18 -110 19 -129 18
-138 24 -140 113 -1 29 -6 58 -12 65 -6 7 -13 46 -17 87 -3 40 -10 79 -13 85
-4 6 -6 20 -4 30 1 11 -7 41 -20 67 -18 40 -20 51 -9 64 7 8 17 15 23 15 6 0
43 10 83 22 77 23 74 20 99 114 5 19 121 37 195 31 38 -3 72 -2 75 3 9 15 7
75 -5 115 -28 94 -70 312 -66 338 9 45 46 72 77 56 11 -5 21 -4 27 4 14 18 25
77 14 77 -16 0 -13 96 3 110 8 7 46 16 83 20 77 9 110 -2 129 -40 7 -14 13
-20 13 -15 0 6 4 4 9 -3 4 -8 25 -15 45 -17 20 -2 43 -10 51 -19 14 -13 12
-17 -15 -33 -33 -19 -39 -38 -15 -47 8 -3 15 -1 15 5 0 5 6 9 13 7 24 -4 56
13 50 28 -3 7 0 14 6 14 8 0 6 12 -4 37 -19 45 -11 88 18 108 12 8 59 17 105
21 76 6 84 5 102 -14 11 -12 20 -25 20 -29 0 -13 61 -63 70 -58 5 3 3 -9 -3
-25 -10 -25 -9 -33 3 -40 19 -12 21 -12 40 0 12 7 13 16 2 55 -14 51 -15 94
-4 112 13 21 62 33 133 33 56 0 73 -4 89 -20 11 -11 20 -24 20 -29 0 -13 57
-31 96 -31 19 0 34 5 34 11 0 5 4 8 8 5 4 -2 9 10 10 27 4 46 29 66 97 75 78
11 102 9 126 -11z m4565 -72 c-4 -13 -2 -14 14 -5 25 13 55 9 98 -13 33 -18
41 -40 20 -54 -20 -12 -129 -12 -155 0 -28 13 -29 21 -2 58 22 31 35 38 25 14z
m587 -101 c24 -23 26 -30 14 -41 -17 -17 -68 -22 -82 -8 -6 5 -17 25 -24 43
-11 25 -11 35 -1 47 10 12 16 13 39 1 14 -8 39 -27 54 -42z m-409 5 c-5 -8 1
-10 18 -6 31 8 78 -25 78 -54 0 -10 5 -19 12 -19 30 0 -15 -24 -58 -30 -38 -6
-50 -4 -65 11 -11 11 -18 22 -18 27 1 4 0 12 -1 17 -7 29 -3 41 15 52 27 15
27 15 19 2z m8669 -97 c19 -1 44 -18 78 -52 52 -52 87 -64 96 -32 9 34 56 52
137 52 69 0 78 -2 109 -30 23 -20 45 -30 66 -30 50 0 61 -28 51 -130 -5 -47
-9 -140 -9 -208 -1 -82 -6 -134 -15 -157 -22 -52 -108 -155 -136 -162 -36 -9
-167 20 -234 53 -83 40 -165 111 -213 183 -42 61 -56 100 -31 85 8 -5 9 -2 5
10 -4 10 -7 24 -7 33 0 8 -6 13 -12 11 -31 -11 -57 62 -58 157 0 51 33 190 51
211 9 11 29 12 122 6z m-6120 -797 c32 -8 33 -11 10 -33 -13 -13 -32 -16 -91
-14 -80 2 -92 6 -92 27 0 28 96 39 173 20z m130 -71 c9 -4 17 -10 17 -15 0 -5
6 -6 14 -3 8 3 17 1 21 -5 3 -6 2 -11 -4 -11 -6 0 -8 -7 -5 -15 5 -11 -2 -15
-27 -17 -58 -3 -64 -4 -76 -11 -9 -6 -11 -3 -6 9 4 11 2 15 -4 11 -19 -12 -23
35 -5 58 13 17 21 21 37 14 11 -5 28 -12 38 -15z m-508 6 c3 -6 10 -8 15 -5 5
3 12 1 15 -5 11 -17 -15 -40 -44 -40 -14 0 -43 -3 -63 -6 -72 -12 -143 34 -85
55 33 12 154 13 162 1z m-348 -55 c33 -7 50 -32 35 -47 -14 -14 -153 -19 -189
-7 -34 11 -44 35 -19 45 20 7 108 20 126 18 8 -1 29 -5 47 -9z m503 -30 c7
-24 9 -48 6 -53 -9 -15 -46 -22 -46 -9 0 7 -5 5 -10 -3 -9 -13 -11 -13 -20 0
-9 13 -11 13 -19 1 -7 -11 -12 -7 -19 20 -7 27 -6 35 7 41 9 4 11 7 4 7 -6 1
-9 9 -7 19 4 12 16 17 48 19 44 1 44 1 56 -42z m9391 8 c13 -16 12 -17 -3 -4
-17 13 -22 21 -14 21 2 0 10 -8 17 -17z m-9801 -53 c16 0 41 -51 35 -71 -5
-15 -14 -19 -33 -17 -31 3 -55 42 -42 67 5 9 12 25 16 36 6 18 8 18 11 3 3
-10 8 -18 13 -18z m-454 -11 c29 -32 47 -38 87 -29 21 4 35 4 31 -1 -3 -5 -1
-9 4 -9 12 0 35 -78 26 -91 -3 -6 -12 -8 -20 -5 -7 3 -16 1 -19 -4 -8 -13 -51
-13 -76 1 -16 8 -19 18 -15 49 5 45 -10 59 -54 52 -105 -17 -196 1 -169 34 13
16 38 21 120 23 55 1 69 -2 85 -20z m13628 -24 c-4 -8 -1 -15 5 -15 6 0 11 -6
11 -14 0 -8 5 -16 11 -18 6 -2 17 -19 25 -38 14 -33 14 -34 -6 -15 -11 10 -20
24 -20 32 0 7 -4 13 -8 13 -12 0 -33 50 -27 61 9 14 15 11 9 -6z m-1688 -62
c23 -31 24 -34 5 -18 -22 19 -46 55 -38 55 3 0 17 -17 33 -37z m-12188 -52
c21 -42 11 -71 -23 -71 -22 0 -77 30 -93 53 -7 9 -20 17 -28 17 -22 0 -17 20
9 30 12 5 43 9 69 9 45 1 48 -1 66 -38z m13922 -97 c0 -6 10 -24 23 -40 l22
-29 -23 17 c-36 24 -125 153 -93 134 6 -4 11 -2 11 5 0 7 13 -8 30 -32 16 -24
30 -49 30 -55z m2118 -70 c5 -9 4 -35 -4 -66 -7 -27 -16 -71 -18 -96 -11 -92
-25 -188 -31 -204 -8 -19 -35 -28 -90 -28 -48 0 -64 -9 -70 -38 -2 -12 -10
-29 -18 -37 -17 -16 -73 -33 -65 -19 10 19 21 50 23 69 16 121 25 246 20 273
-5 26 -1 36 21 57 15 14 33 25 40 25 7 0 19 6 26 13 26 23 113 66 135 66 12 1
26 -6 31 -15z m-20073 -100 c11 -2 29 -19 40 -37 17 -27 27 -33 70 -37 60 -6
92 5 99 35 8 30 48 46 132 52 95 7 121 0 146 -43 l21 -35 94 2 c69 1 98 -2
108 -12 7 -8 17 -69 25 -149 l12 -134 -28 -56 c-34 -64 -37 -67 -86 -75 -29
-5 -49 -2 -78 14 -33 17 -52 20 -103 15 -63 -5 -129 -19 -158 -34 -8 -4 -29
-6 -46 -4 -20 2 -33 -2 -36 -11 -4 -8 -29 -16 -64 -21 -45 -5 -54 -9 -38 -16
16 -7 14 -7 -7 -3 -17 3 -40 -2 -61 -14 -27 -15 -37 -17 -46 -8 -9 9 -11 8 -6
-5 6 -14 2 -18 -19 -18 -19 0 -27 -6 -32 -25 -7 -30 -24 -33 -31 -5 -3 11 -14
20 -25 20 -11 0 -22 -9 -25 -20 -6 -23 -19 -26 -26 -7 -3 7 -6 5 -6 -6 -1 -10
-7 -17 -13 -16 -7 1 -29 1 -48 0 -25 -1 -31 -4 -21 -10 10 -6 0 -8 -28 -5 -23
2 -40 0 -36 -5 3 -5 -13 -12 -35 -16 -22 -4 -43 -11 -46 -16 -3 -6 -12 -2 -19
8 -7 10 -17 14 -21 10 -5 -4 -2 -12 5 -16 14 -9 7 -31 -10 -31 -10 0 -29 41
-35 75 -2 11 -15 83 -30 161 l-27 140 62 79 c34 43 71 85 81 92 11 8 20 21 20
29 0 20 28 61 46 68 8 3 25 1 38 -4 28 -10 46 4 46 37 0 54 128 84 245 57z
m-2871 -345 c13 -7 30 -25 37 -41 16 -40 37 -48 119 -48 83 0 101 -7 129 -55
l20 -35 74 0 c60 0 79 -4 101 -21 14 -11 26 -27 26 -34 0 -20 41 -45 76 -46
16 0 57 -3 91 -6 60 -4 64 -6 90 -45 25 -36 39 -45 122 -74 52 -18 98 -37 103
-42 5 -5 13 -49 18 -98 6 -49 17 -132 25 -184 27 -171 38 -259 32 -274 -6 -16
-87 -42 -181 -58 -34 -6 -86 -22 -116 -35 -30 -14 -75 -31 -100 -38 -25 -8
-114 -34 -199 -59 -85 -25 -164 -46 -176 -46 -34 0 -51 28 -69 120 -33 166
-59 270 -68 270 -4 0 -8 4 -8 10 0 5 3 9 8 9 19 -3 21 3 9 29 -7 15 -12 34
-10 44 3 10 -4 19 -19 24 -13 4 -33 17 -45 30 -12 13 -27 24 -33 24 -11 0 -61
30 -70 41 -3 4 -22 10 -43 14 -20 4 -37 11 -37 16 0 5 -6 6 -13 3 -8 -3 -20 2
-27 11 -15 18 -36 20 -43 3 -4 -8 -6 -7 -6 3 -1 19 -21 29 -57 29 -14 0 -22 4
-19 10 3 6 -1 10 -9 10 -9 0 -31 9 -51 20 -20 11 -44 20 -53 20 -10 0 -23 5
-29 11 -20 20 -186 79 -223 79 -29 1 -31 3 -15 10 18 8 17 9 -7 9 -16 1 -28 6
-28 11 0 6 -15 10 -34 10 -44 0 -66 9 -66 25 0 15 -35 29 -49 20 -5 -3 -12 -1
-15 4 -4 5 -1 13 4 16 7 5 5 11 -5 19 -33 24 -14 50 44 63 45 10 58 9 75 -3
11 -8 29 -14 39 -14 16 0 18 5 14 27 -7 39 8 70 45 90 26 14 61 18 167 20 117
2 136 1 147 -15 9 -11 13 -13 14 -4 0 7 4 11 9 7 6 -3 11 11 13 31 4 45 34 70
98 83 66 13 145 13 174 0z m20656 -428 c0 -21 -23 -45 -33 -34 -4 3 -7 -2 -7
-12 0 -14 -3 -16 -11 -8 -8 8 -6 19 5 42 18 34 46 42 46 12z m474 10 c3 -5 3
-23 0 -40 -5 -24 -12 -31 -30 -31 -35 0 -45 27 -20 56 22 25 41 30 50 15z
m-1389 -48 c-4 -17 -9 -23 -16 -16 -7 7 -6 19 3 38 14 31 23 17 13 -22z
m-11390 -80 c42 -5 55 -12 85 -44 33 -36 41 -40 110 -48 41 -5 78 -7 82 -5 4
3 8 16 8 28 0 13 6 28 13 34 21 17 99 34 154 33 63 0 106 -20 129 -61 14 -23
27 -31 62 -36 48 -7 59 -1 64 36 4 31 41 50 112 57 81 8 123 -3 168 -47 35
-33 48 -39 104 -45 38 -4 73 -14 87 -25 28 -22 44 -15 22 10 -10 11 -13 27 -9
47 5 27 13 33 58 47 95 29 224 1 241 -54 8 -24 35 -30 116 -25 92 6 94 3 95
-154 0 -69 1 -207 2 -306 2 -143 -2 -195 -16 -255 -13 -54 -23 -76 -35 -78
-14 -3 -17 5 -18 40 -4 220 -11 369 -18 386 -1 1 -1 5 0 9 1 12 -35 21 -52 12
-10 -5 -21 -3 -27 3 -7 7 -32 13 -56 14 -36 2 -44 0 -39 -11 7 -20 -6 -19 -29
2 -10 9 -18 12 -18 7 0 -14 -74 -14 -82 -1 -6 9 -8 9 -8 0 0 -18 -27 -16 -34
2 -3 8 -11 15 -18 14 -10 0 -10 -2 0 -6 6 -2 12 -12 12 -20 0 -14 -3 -14 -20
2 -12 11 -30 16 -49 13 -18 -3 -28 0 -24 5 4 6 -6 8 -27 4 -25 -5 -31 -4 -27
7 4 10 -5 13 -34 11 -22 -1 -43 -6 -47 -10 -4 -4 5 -5 21 -1 16 4 27 2 27 -4
0 -17 -43 -11 -84 11 -21 11 -35 15 -31 10 3 -7 -3 -11 -14 -11 -12 0 -21 5
-21 11 0 6 -5 7 -12 2 -22 -14 -119 -30 -124 -21 -3 5 -12 4 -20 -3 -8 -6 -14
-8 -14 -3 0 13 -60 45 -71 38 -5 -3 -7 -9 -4 -13 5 -10 -40 -20 -70 -16 -46 5
-71 17 -80 38 -14 31 -41 33 -49 5 -5 -19 -8 -20 -15 -8 -8 12 -12 10 -20 -10
-5 -14 -10 -19 -10 -12 -1 7 -6 10 -12 6 -21 -13 -79 -22 -85 -13 -3 5 -21 9
-40 9 -27 0 -34 4 -34 20 0 13 9 22 25 26 14 3 25 11 25 16 0 6 11 7 24 4 14
-3 28 -2 31 4 3 5 18 10 32 10 19 0 24 4 19 16 -3 9 -6 19 -6 23 0 3 -21 6
-47 6 -27 -1 -65 2 -85 5 -27 5 -41 3 -49 -6 -9 -11 -8 -14 1 -14 7 0 10 -8 7
-20 -3 -11 -1 -20 4 -20 15 0 10 -57 -7 -71 -20 -16 -172 -19 -188 -4 -14 13
-56 17 -56 5 0 -5 -8 -9 -17 -9 -10 0 -52 -2 -93 -4 -73 -4 -100 5 -100 32 0
5 -4 13 -10 16 -6 3 -7 -1 -4 -9 4 -9 0 -18 -9 -22 -9 -3 -13 -13 -10 -22 4
-15 3 -15 -7 -2 -6 8 -13 11 -16 5 -7 -17 -133 -11 -154 8 -17 14 -17 20 -6
64 17 65 76 225 89 241 10 13 66 16 104 6 12 -3 23 -15 25 -27 3 -25 34 -35
52 -17 8 9 3 19 -22 40 -40 33 -37 62 6 78 53 21 85 24 167 15z m12900 -84
c-1 -24 -3 -55 -5 -69 l-5 -25 98 -5 c75 -4 101 -2 111 9 17 16 36 7 36 -17 0
-19 -58 -62 -84 -62 -9 0 -15 -3 -13 -7 3 -5 -116 -8 -263 -8 -147 0 -266 -3
-264 -7 6 -10 -69 12 -85 26 -12 9 -13 8 -7 -3 10 -16 9 -15 -61 22 -29 15
-53 25 -53 22 0 -3 8 -18 17 -32 15 -23 16 -25 2 -17 -25 14 -69 70 -68 85 0
11 2 11 6 2 5 -15 23 -17 23 -4 0 5 -6 16 -13 23 -18 18 -28 48 -17 48 6 0 10
-4 10 -10 0 -5 5 -10 10 -10 6 0 10 8 10 19 0 22 25 46 34 32 3 -5 0 -12 -6
-15 -7 -3 -3 -3 10 0 17 4 22 1 22 -15 0 -39 27 -23 35 21 5 25 22 44 31 35 3
-3 2 -12 -2 -19 -5 -7 -7 -24 -6 -38 1 -14 -7 -36 -18 -50 -11 -14 -20 -20
-20 -13 0 6 -9 9 -20 6 -22 -6 -26 -18 -10 -28 6 -3 10 -2 10 3 0 6 21 5 53 0
70 -13 354 -5 369 10 9 9 8 12 -4 12 -23 0 -29 25 -10 43 10 8 23 23 31 32 10
13 15 14 21 5 4 -7 12 -10 18 -6 6 3 13 0 15 -6 3 -7 6 -1 6 14 1 26 26 50 46
44 6 -1 10 -23 10 -47z m-2260 14 l18 -28 -21 19 c-12 11 -22 23 -22 28 0 14
7 9 25 -19z m-21004 -59 c-29 -21 -89 -35 -97 -23 -3 5 5 9 18 9 13 1 34 7 48
15 35 20 60 19 31 -1z m1294 -14 c3 -5 1 -10 -4 -10 -6 0 -11 5 -11 10 0 6 2
10 4 10 3 0 8 -4 11 -10z m19705 -103 c6 -13 -4 -5 -25 17 -19 22 -35 44 -35
49 0 13 47 -38 60 -66z m-19680 52 c0 -6 7 -9 15 -5 11 4 15 -2 16 -22 1 -17
3 -20 6 -9 3 10 13 17 26 16 12 0 16 -3 10 -6 -17 -6 -17 -23 0 -23 7 0 18
-10 25 -21 13 -21 12 -21 -20 -15 -18 4 -42 8 -52 10 -11 1 -22 8 -24 14 -2 7
-8 9 -14 6 -5 -4 -5 3 2 16 15 28 3 41 -16 16 -10 -15 -14 -16 -14 -5 0 16 19
39 32 39 4 0 8 -5 8 -11z m21325 -141 c-3 -12 1 -15 12 -11 9 4 14 2 11 -3 -8
-12 17 -35 28 -26 5 4 3 -1 -4 -10 -11 -14 -10 -18 5 -27 10 -6 14 -10 8 -10
-12 -1 -43 25 -69 56 -16 20 -17 25 -5 40 13 16 12 17 -3 5 -11 -9 -18 -10
-23 -2 -3 5 1 10 9 10 10 0 13 6 9 18 -5 14 -3 13 10 -3 8 -11 14 -27 12 -37z
m-21185 34 c0 -4 -11 -9 -25 -10 -14 -1 -25 3 -25 8 0 6 11 10 25 10 14 0 25
-4 25 -8z m9207 -28 c-3 -3 -12 -4 -19 -1 -8 3 -5 6 6 6 11 1 17 -2 13 -5z
m12471 -21 c-10 -2 -26 -2 -35 0 -10 3 -2 5 17 5 19 0 27 -2 18 -5z m-11781
-75 c-3 -8 -6 -5 -6 6 -1 11 2 17 5 13 3 -3 4 -12 1 -19z m3686 -29 c28 -7 42
-19 56 -47 28 -54 72 -82 146 -93 87 -12 110 -25 131 -71 10 -22 27 -44 38
-50 62 -28 76 -40 76 -65 0 -80 -228 -177 -370 -157 -79 11 -177 41 -226 70
-96 57 -217 199 -239 283 -14 55 -12 61 22 61 28 0 43 -32 43 -90 0 -42 19
-57 51 -40 10 6 29 8 42 4 19 -4 25 -1 30 17 4 13 3 26 -1 29 -4 3 -7 21 -7
40 1 21 -6 43 -17 56 -17 20 -18 21 -1 36 10 9 27 18 38 21 37 9 150 7 188 -4z
m9159 -73 c69 -21 87 -33 101 -69 11 -25 25 -36 65 -51 37 -13 52 -23 52 -37
0 -10 9 -23 19 -29 28 -15 33 -13 26 10 -4 11 -2 20 4 20 6 0 17 15 25 34 17
42 51 51 159 44 96 -7 149 -30 170 -73 15 -32 18 -33 93 -40 54 -5 82 -13 95
-26 20 -20 20 -15 -6 -159 -8 -41 -24 -137 -36 -214 l-22 -138 24 -19 c13 -10
40 -24 59 -30 19 -6 49 -27 66 -46 37 -43 70 -41 61 4 -3 14 2 45 10 69 17 51
45 64 138 64 77 0 146 -20 221 -65 57 -34 329 -260 369 -307 11 -12 38 -38 60
-55 47 -39 46 -35 9 -243 -80 -445 -75 -430 -143 -430 -20 0 -196 -9 -391 -20
-195 -11 -448 -23 -562 -27 -195 -6 -208 -5 -214 12 -4 10 5 95 20 189 15 94
37 232 48 305 l20 135 -68 65 c-38 35 -101 94 -140 130 -38 36 -96 90 -128
120 l-58 54 -18 -23 c-20 -26 -7 -27 -243 14 -76 13 -140 25 -141 27 -2 2 0
31 5 64 80 552 108 735 115 747 8 13 85 9 136 -6z m-3072 -270 c0 -4 6 -6 13
-3 32 12 61 18 50 10 -8 -6 8 -15 47 -26 33 -10 60 -22 60 -27 0 -5 13 -11 28
-15 15 -3 52 -24 82 -45 30 -22 63 -43 72 -46 10 -3 20 -14 23 -24 3 -10 12
-21 20 -24 18 -6 65 -80 65 -101 0 -8 4 -15 9 -15 9 0 31 -75 31 -105 0 -9 -4
-13 -10 -10 -5 3 -10 -1 -10 -9 0 -9 5 -16 10 -16 13 0 13 -107 0 -115 -6 -4
-8 -11 -4 -16 3 -5 -4 -25 -15 -44 -31 -54 -42 -102 -24 -109 8 -3 20 -3 26 0
7 4 -6 -9 -28 -29 -22 -20 -48 -39 -58 -42 -9 -4 -15 -11 -12 -16 4 -5 -2 -9
-11 -9 -10 0 -14 -3 -11 -7 7 -6 -21 -18 -98 -44 -55 -19 -214 -13 -285 10
-293 93 -457 390 -343 622 35 71 122 164 192 206 80 47 181 75 181 49z m-9110
-116 c0 -5 -2 -10 -4 -10 -3 0 -8 5 -11 10 -3 6 -1 10 4 10 6 0 11 -4 11 -10z
m11059 -15 c105 -25 188 -72 266 -150 65 -65 128 -166 112 -181 -7 -8 -339 45
-642 102 -122 23 -115 18 -115 77 0 29 3 69 6 89 6 33 12 39 48 52 60 22 72
24 171 25 50 0 119 -6 154 -14z m-12207 -201 c15 -8 31 -28 37 -47 16 -48 57
-67 164 -77 51 -5 102 -12 113 -16 23 -9 43 -34 44 -55 0 -36 58 -63 130 -61
41 1 130 -19 130 -29 0 -5 7 -9 15 -9 9 0 15 -6 14 -12 -3 -28 2 -49 10 -43 5
3 13 -4 16 -16 4 -12 12 -18 20 -15 8 3 17 -3 20 -14 5 -16 19 -19 111 -22 98
-3 106 -5 124 -28 22 -29 12 -40 -32 -35 -16 2 -28 -1 -28 -7 0 -17 -180 -4
-191 13 -5 8 -9 10 -9 5 0 -5 -7 -3 -15 4 -8 7 -15 8 -15 3 0 -5 -7 -10 -14
-10 -12 0 -14 14 -11 66 4 70 -5 87 -37 70 -10 -6 -59 -12 -108 -13 -125 -5
-159 17 -151 99 3 39 -3 42 -85 30 -50 -7 -94 -8 -119 -2 -73 16 -125 20 -125
8 0 -6 -4 -11 -9 -11 -15 0 -17 52 -4 87 9 23 10 34 2 39 -8 4 -7 9 2 16 14 9
-99 3 -153 -8 -14 -3 -29 -1 -32 5 -4 6 -13 8 -20 5 -8 -3 -17 0 -21 5 -3 6
-11 9 -16 6 -5 -4 -9 -1 -9 6 0 10 -3 10 -11 2 -11 -11 -15 -75 -6 -90 3 -5
-5 -22 -19 -38 -13 -15 -24 -33 -24 -39 0 -6 4 -5 9 3 8 12 12 11 27 -3 13
-14 26 -16 53 -11 20 3 48 7 63 7 21 1 28 7 34 32 l7 31 6 -35 c5 -28 8 -31
12 -15 4 12 15 21 29 22 13 1 26 7 30 13 5 7 9 4 13 -10 4 -16 0 -23 -19 -30
-13 -5 -24 -12 -24 -14 0 -3 7 -3 16 1 13 5 15 2 9 -15 -5 -16 -2 -22 9 -22 9
0 16 -7 16 -15 0 -8 8 -15 18 -15 10 0 13 -3 7 -8 -6 -4 -10 -14 -9 -22 0 -8
2 -22 2 -30 2 -13 21 -15 117 -13 71 1 113 -2 110 -8 -4 -5 -1 -9 4 -9 6 0 11
-7 11 -15 0 -8 5 -15 10 -15 6 0 9 -3 8 -7 -1 -5 3 -19 9 -33 6 -14 14 -33 17
-43 10 -31 59 -38 174 -24 17 2 32 0 32 -6 0 -5 7 -7 15 -4 8 4 17 1 21 -5 4
-7 9 -6 15 3 7 11 9 10 9 -5 0 -12 5 -16 15 -12 21 8 20 -28 -1 -45 -21 -17
-34 -20 -131 -25 -67 -4 -91 -2 -126 14 -31 14 -49 17 -61 10 -16 -9 -17 -4
-14 62 l5 72 -41 -6 c-81 -13 -186 -8 -223 9 -30 15 -34 21 -31 46 3 17 1 32
-3 35 -5 2 -6 11 -3 19 5 11 -15 13 -113 12 -105 -1 -122 1 -155 21 -21 12
-38 18 -38 13 0 -12 -81 -52 -92 -45 -4 3 -8 0 -8 -7 0 -10 -3 -10 -12 -1 -7
7 -26 12 -42 12 -24 0 -27 3 -16 10 13 9 13 10 0 11 -8 1 -23 1 -32 0 -21 -3
-22 3 -7 30 8 16 13 18 25 8 8 -6 17 -9 21 -5 3 3 1 6 -5 6 -7 0 -12 5 -12 10
0 15 27 12 44 -5 8 -8 21 -15 28 -15 10 0 9 3 -2 10 -11 8 -8 9 13 4 37 -9 57
10 55 53 l-1 34 -81 -3 c-60 -3 -92 0 -127 13 l-47 18 -5 -36 c-4 -22 -1 -46
9 -65 30 -58 9 -59 -118 -9 -65 25 -118 49 -118 52 0 9 40 25 139 54 46 14 92
32 102 41 25 22 87 43 131 44 21 0 78 14 128 30 50 17 99 30 110 30 11 0 20 4
20 9 0 19 58 45 115 51 71 7 120 2 157 -16z m4203 -365 c7 -8 3 -9 -14 -4 -18
5 -22 4 -16 -5 5 -8 4 -11 -3 -6 -6 3 -14 2 -17 -4 -4 -6 -15 -8 -25 -5 -11 3
-40 -1 -65 -10 -34 -11 -51 -12 -66 -4 -25 13 -19 35 10 32 23 -3 29 12 9 20
-7 3 30 3 82 1 52 -3 99 -9 105 -15z m-4545 -106 c0 -21 -28 -15 -41 8 -9 17
-8 23 2 30 15 9 39 -14 39 -38z m11989 7 c12 -17 20 -30 17 -30 -5 0 -66 60
-66 65 0 12 30 -10 49 -35z m-10615 -72 c22 -32 20 -53 -8 -67 -32 -18 -45 -8
-41 32 2 17 4 38 4 45 2 20 29 14 45 -10z m10610 -57 c12 -10 14 -17 6 -25 -7
-7 -3 -17 12 -33 12 -13 17 -23 11 -23 -9 0 -93 84 -93 93 0 9 49 0 64 -12z
m-21459 -21 c3 -5 1 -10 -4 -10 -6 0 -11 5 -11 10 0 6 2 10 4 10 3 0 8 -4 11
-10z m10879 -5 c3 -8 1 -15 -4 -15 -6 0 -10 7 -10 15 0 8 2 15 4 15 2 0 6 -7
10 -15z m-10960 -17 c-4 -6 1 -17 11 -24 10 -8 16 -17 12 -20 -3 -4 -2 -15 3
-25 8 -14 6 -21 -9 -29 -11 -5 -26 -10 -34 -10 -17 0 -28 32 -17 51 5 7 4 23
0 35 -7 18 -5 24 8 27 30 8 33 7 26 -5z m11001 2 c3 -6 -1 -7 -9 -4 -18 7 -21
14 -7 14 6 0 13 -4 16 -10z m160 -10 c0 -22 -29 -18 -33 3 -3 14 1 18 15 15
10 -2 18 -10 18 -18z m-634 -48 c11 -7 17 -17 14 -22 -6 -9 23 -22 35 -15 4 3
15 -6 23 -19 15 -23 15 -24 -11 -29 -36 -7 -47 2 -25 19 16 12 13 13 -30 14
-57 0 -63 11 -46 71 11 37 13 40 17 19 2 -13 13 -31 23 -38z m6320 -5 c4 -5
12 -6 19 -2 9 6 9 9 0 15 -8 5 -3 7 13 7 14 -1 25 -6 24 -11 -1 -5 9 -10 23
-10 14 0 31 -6 39 -14 8 -8 24 -11 38 -7 15 3 25 1 29 -9 3 -8 17 -17 30 -20
14 -4 22 -11 19 -15 -3 -5 8 -12 25 -16 16 -4 36 -16 44 -27 8 -11 19 -17 24
-14 6 3 13 -3 17 -14 3 -11 12 -20 18 -20 7 0 21 -14 32 -30 11 -16 26 -30 33
-30 6 0 12 -9 12 -20 0 -11 6 -20 14 -20 14 0 33 -67 28 -103 -1 -10 2 -16 7
-13 5 3 11 -3 14 -14 3 -11 0 -20 -6 -21 -9 0 -9 -2 0 -5 9 -4 9 -13 2 -30
-12 -32 -11 -43 1 -24 6 10 8 1 6 -32 -1 -26 -7 -53 -13 -60 -6 -7 -13 -26
-17 -42 -4 -17 -16 -42 -27 -58 -11 -15 -17 -32 -14 -38 3 -5 1 -10 -4 -10 -6
0 -11 -7 -11 -15 0 -9 6 -12 15 -9 32 13 13 -13 -32 -42 -179 -116 -489 -38
-642 160 -62 81 -93 172 -95 281 -1 77 3 97 23 140 44 90 188 206 244 197 9
-2 17 2 17 8 0 13 41 3 51 -13z m-16065 -31 c9 -23 -14 -54 -45 -61 -16 -3
-32 -13 -35 -21 -3 -8 -19 -14 -36 -14 -34 0 -128 -45 -120 -58 3 -4 -13 -9
-35 -12 -42 -5 -125 -47 -125 -63 0 -5 -7 -4 -15 3 -13 11 -19 9 -36 -8 -11
-12 -29 -22 -39 -22 -11 0 -20 -5 -20 -11 0 -5 -5 -7 -10 -4 -6 3 -13 -1 -16
-9 -3 -9 -15 -16 -25 -16 -10 0 -19 -7 -19 -15 0 -12 -7 -14 -26 -9 -21 5 -25
4 -19 -6 5 -8 3 -11 -6 -8 -8 3 -29 -1 -48 -8 -18 -8 -37 -12 -41 -9 -5 3 -10
2 -12 -2 -1 -5 -29 -21 -60 -36 -32 -16 -58 -32 -58 -37 0 -5 -10 -11 -22 -15
-29 -8 -51 -17 -111 -44 -26 -11 -55 -21 -63 -21 -10 0 -14 -6 -10 -15 4 -11
-2 -15 -25 -15 -18 0 -32 -6 -36 -16 -3 -8 -12 -13 -20 -10 -8 3 -12 2 -9 -2
3 -5 -11 -15 -30 -24 -34 -16 -35 -15 -29 6 5 18 5 19 -5 4 -6 -10 -18 -18
-25 -18 -18 0 -20 -16 -2 -23 7 -3 5 -6 -5 -6 -10 -1 -18 4 -18 10 0 6 -15 0
-34 -15 -19 -14 -41 -26 -50 -26 -8 0 -22 -3 -32 -7 -16 -6 -16 -7 2 -14 14
-6 10 -8 -16 -7 -38 2 -70 -12 -102 -44 -14 -14 -22 -17 -28 -9 -5 9 -10 8
-20 -4 -7 -8 -18 -15 -26 -15 -7 0 -17 -6 -21 -12 -4 -7 -16 -13 -25 -14 -60
-3 -68 -5 -68 -20 0 -11 -6 -14 -22 -8 -43 13 -46 9 55 59 43 21 80 42 83 46
2 4 26 15 52 24 106 38 393 173 417 196 5 5 17 9 27 9 10 0 26 4 36 9 9 5 40
19 67 31 42 18 211 101 265 130 15 8 27 12 110 45 25 10 131 60 236 112 106
51 197 93 204 93 6 0 26 10 43 23 71 50 94 57 103 33z m-282 -15 c23 -25 7
-58 -32 -67 -15 -3 -45 -14 -67 -24 -28 -13 -44 -15 -52 -8 -29 24 -5 64 36
62 13 -1 37 11 55 27 37 34 38 34 60 10z m-928 -124 c2 -7 6 -23 10 -37 4 -19
1 -16 -14 10 -11 19 -18 39 -15 43 6 10 16 2 19 -16z m516 -109 c-22 -22 -116
-59 -145 -56 -45 4 -50 36 -8 44 17 4 34 10 37 15 2 4 11 6 19 3 9 -4 19 4 27
21 8 18 17 25 30 22 10 -3 18 0 19 6 0 7 7 -1 14 -18 7 -16 10 -33 7 -37z
m375 26 c-3 -3 -12 -4 -19 -1 -8 3 -5 6 6 6 11 1 17 -2 13 -5z m-1252 -47
c-10 -8 -15 -19 -12 -24 4 -6 -5 -12 -21 -15 -22 -3 -27 0 -28 19 -1 16 5 23
25 26 53 8 56 8 36 -6z m-5 -66 c15 -28 12 -35 -7 -20 -15 13 -16 12 -11 -8 5
-19 2 -23 -17 -23 -19 0 -21 4 -17 28 8 43 34 55 52 23z m490 -45 c16 -31 10
-48 -26 -65 -16 -7 -41 -20 -56 -27 -32 -17 -75 -18 -91 -2 -10 9 -8 16 9 33
24 24 64 39 64 24 0 -16 28 -10 34 7 5 14 4 15 -9 4 -13 -11 -14 -10 -9 4 3 9
15 16 25 16 11 0 22 7 25 15 9 21 19 19 34 -9z m310 -36 c0 -5 -4 -10 -10 -10
-5 0 -10 5 -10 10 0 6 5 10 10 10 6 0 10 -4 10 -10z m21667 -12 c-15 -11 -10
-13 32 -12 28 0 48 -3 45 -8 -3 -4 3 -8 14 -8 16 0 118 -48 177 -83 29 -18
125 -115 125 -127 0 -5 4 -10 8 -10 5 0 17 -19 27 -42 9 -24 21 -52 26 -63 10
-22 17 -155 9 -155 -3 0 -7 -14 -8 -32 -2 -18 -8 -35 -14 -39 -6 -4 -8 -11 -4
-17 3 -6 -1 -17 -9 -25 -8 -9 -15 -23 -15 -31 0 -9 -4 -16 -10 -16 -5 0 -10
-7 -10 -15 0 -8 -9 -25 -21 -37 -67 -74 -90 -93 -146 -119 -54 -25 -74 -29
-150 -29 -101 0 -162 14 -254 58 -167 80 -288 261 -277 414 8 112 97 247 213
325 57 37 161 77 181 69 8 -3 24 -1 36 4 33 13 44 12 25 -2z m-22922 -95 c0
-58 0 -58 -32 -61 -38 -4 -42 11 -17 61 12 21 13 32 5 35 -22 7 -11 22 17 22
27 0 28 -1 27 -57z m481 -23 c9 0 12 -5 9 -10 -8 -13 -35 6 -34 24 0 7 2 6 6
-1 2 -7 11 -13 19 -13z m21 -73 c-15 -23 -18 -25 -90 -57 -51 -24 -77 -21 -77
8 0 24 19 42 38 35 11 -5 13 -2 7 6 -6 10 -3 11 15 1 23 -12 39 -2 40 27 0 15
40 22 63 10 16 -7 17 -11 4 -30z m114 -100 c-1 -12 -15 -9 -19 4 -3 6 1 10 8
8 6 -3 11 -8 11 -12z m-321 -96 c0 -12 -28 -22 -34 -12 -3 5 -3 11 1 15 9 9
33 7 33 -3z m-50 -18 c0 -5 -4 -14 -9 -22 -7 -10 -13 -11 -30 -2 -12 7 -19 16
-16 22 7 11 55 12 55 2z m90 3 c0 -3 -4 -8 -10 -11 -5 -3 -10 -1 -10 4 0 6 5
11 10 11 6 0 10 -2 10 -4z m2440 -332 c0 -12 -4 -24 -10 -26 -6 -2 -6 -17 1
-42 16 -58 0 -81 -67 -93 -53 -9 -54 -9 -54 14 0 14 -6 23 -15 23 -18 0 -20
16 -4 26 8 4 3 11 -12 19 -22 12 -20 13 32 24 44 9 58 18 77 45 13 18 22 37
21 42 -4 23 3 27 16 10 8 -11 15 -30 15 -42z m525 -46 c4 -13 8 -35 10 -49 1
-14 5 -35 9 -46 12 -37 -10 -72 -61 -94 -27 -12 -58 -26 -70 -32 -13 -6 -40
-6 -70 -1 -44 8 -48 11 -50 39 -1 17 1 22 4 12 8 -31 33 1 33 44 0 34 3 39 28
45 83 19 103 27 121 51 12 14 21 32 21 39 0 22 17 16 25 -8z m14803 -11 c29
-6 55 -14 58 -19 3 -4 14 -8 25 -8 22 0 51 -15 92 -47 16 -13 37 -23 48 -23
10 0 19 -6 19 -14 0 -8 9 -17 19 -21 11 -3 23 -15 26 -25 3 -10 11 -17 18 -14
7 2 21 -13 32 -33 10 -21 25 -45 31 -53 7 -8 13 -19 15 -25 4 -20 11 -40 20
-57 6 -12 6 -18 -1 -18 -7 0 -6 -8 2 -22 15 -28 18 -58 6 -58 -5 0 -6 -5 -3
-10 9 -15 16 -74 8 -66 -4 4 -13 -17 -20 -46 -8 -29 -18 -54 -23 -56 -6 -2
-10 -10 -10 -18 0 -8 -4 -14 -9 -14 -5 0 -12 -10 -15 -22 -9 -33 -89 -95 -139
-109 -59 -17 -172 -15 -237 4 -74 22 -169 81 -235 147 -93 91 -139 195 -139
315 -1 99 16 137 93 215 99 101 180 126 319 97z m-14465 -65 c14 -2 16 -8 11
-29 -4 -21 -3 -24 5 -14 8 12 11 10 15 -10 10 -47 26 -165 28 -211 2 -27 7
-48 12 -48 5 0 6 -29 4 -65 -4 -42 -2 -63 4 -59 7 5 7 0 0 -12 -6 -11 -7 -27
-1 -41 10 -27 -11 -33 -31 -8 -14 17 -35 21 -25 5 4 -6 -8 -10 -29 -10 -19 0
-38 -5 -42 -11 -4 -7 6 -10 32 -7 32 2 39 0 38 -14 -1 -10 3 -18 10 -18 6 0
17 -9 24 -21 8 -12 21 -19 35 -17 18 3 23 -4 31 -41 l9 -44 -60 -56 c-75 -69
-117 -103 -254 -206 -58 -44 -147 -115 -197 -157 -50 -43 -99 -78 -109 -78
-16 1 -16 2 3 18 15 13 19 23 13 39 -7 19 -16 77 -24 148 -2 17 -4 30 -5 30
-2 0 -8 42 -15 118 -4 37 -11 67 -16 67 -5 0 -9 23 -9 50 0 28 -4 50 -10 50
-5 0 -10 7 -10 15 0 8 4 15 9 15 5 0 -4 24 -20 53 -16 28 -29 58 -29 65 0 8
23 35 52 60 28 26 60 57 71 70 11 12 27 22 34 22 8 0 16 7 19 15 4 8 12 15 20
15 8 0 14 4 14 9 0 5 25 27 55 48 30 22 52 43 48 48 -5 4 -2 5 4 1 8 -4 29 9
53 33 22 22 40 37 40 34 0 -5 63 44 98 77 12 11 22 31 22 43 0 18 -2 19 -10 7
-5 -8 -10 -10 -10 -4 0 26 22 32 93 26z m-1198 -159 l-1 -97 -46 -27 c-58 -34
-101 -44 -126 -28 -17 11 -18 16 -9 38 7 14 19 31 27 38 10 9 11 12 3 13 -7 0
-13 9 -13 20 0 14 11 22 43 32 84 25 114 51 108 96 -1 6 2 12 7 12 5 0 8 -44
7 -97z m17115 62 l-25 -15 25 5 c42 10 64 8 95 -5 17 -7 35 -14 40 -15 6 -1
13 -3 18 -5 4 -1 10 -3 15 -4 21 -4 122 -60 122 -67 0 -5 6 -9 13 -9 12 0 27
-13 85 -75 32 -34 82 -130 82 -157 0 -10 4 -18 8 -18 5 0 8 -20 7 -45 -1 -24
2 -42 7 -39 4 3 8 -6 8 -20 0 -14 -4 -26 -8 -26 -5 0 -9 -19 -10 -42 -1 -23
-8 -49 -15 -57 -8 -9 -25 -37 -40 -62 -62 -109 -136 -149 -275 -149 -168 0
-327 83 -425 222 -91 129 -112 265 -56 376 51 102 178 201 261 203 18 0 42 4
53 9 32 14 42 10 15 -5z m-16564 -80 c1 -28 5 -69 9 -92 7 -38 5 -45 -16 -63
-13 -10 -28 -19 -33 -20 -5 0 -29 -9 -53 -21 -23 -11 -53 -19 -65 -17 -21 3
-23 8 -21 61 1 31 -2 57 -7 57 -6 0 -10 4 -10 9 0 12 57 31 74 25 8 -3 17 0
21 5 3 6 10 9 15 6 15 -10 62 57 57 82 -3 18 0 23 12 21 12 -3 16 -16 17 -53z
m-2556 15 c0 -12 7 -20 16 -20 25 0 104 -42 98 -52 -7 -10 -54 -11 -54 0 0 10
-96 32 -138 32 -51 0 -38 26 23 48 45 16 55 14 55 -8z m22330 -270 c0 -5 11
-10 25 -10 14 0 28 -7 31 -15 5 -11 11 -12 24 -5 11 6 21 6 24 1 3 -4 38 -24
78 -44 64 -31 183 -117 163 -117 -4 0 4 -12 19 -26 14 -15 27 -31 27 -35 3
-18 5 -25 15 -44 17 -31 25 -85 13 -85 -6 0 -7 -5 -4 -10 4 -6 10 -8 15 -5 12
8 9 -103 -6 -150 -17 -57 -62 -145 -74 -145 -6 0 -10 -5 -10 -12 0 -24 -94
-97 -147 -113 -94 -30 -245 -19 -347 24 -173 75 -306 246 -306 396 0 184 199
377 410 398 19 2 38 5 43 5 4 1 7 -2 7 -8z m-15519 -65 c11 -11 27 -34 34 -51
12 -29 17 -32 79 -39 69 -7 79 -18 26 -28 -28 -6 -44 -37 -19 -37 6 0 8 -9 4
-21 -5 -14 0 -26 14 -38 12 -10 21 -27 22 -37 0 -18 1 -18 9 1 6 13 9 15 9 5
1 -8 13 -26 26 -39 28 -26 33 -56 11 -64 -18 -7 -136 13 -153 25 -6 5 -11 17
-11 26 0 9 -4 30 -11 46 -8 20 -15 25 -24 18 -6 -5 -41 -19 -76 -31 -92 -32
-131 -17 -108 39 14 35 17 51 7 45 -4 -3 -10 2 -14 10 -3 8 -1 14 3 12 9 -2
11 3 11 21 0 5 -6 9 -12 9 -63 4 -158 37 -158 55 0 24 26 55 58 70 51 23 74
27 169 24 65 -2 87 -6 104 -21z m12819 -19 c0 -3 -4 -8 -10 -11 -5 -3 -10 -1
-10 4 0 6 5 11 10 11 6 0 10 -2 10 -4z m-12270 -40 c24 -9 41 -25 55 -52 15
-27 31 -42 53 -49 36 -10 43 -25 12 -25 -15 0 -20 -7 -20 -26 0 -48 22 -102
46 -113 27 -12 45 -78 24 -91 -13 -8 -68 4 -82 18 -4 4 -10 33 -12 63 -2 29
-5 57 -5 62 -2 14 -21 7 -21 -9 0 -9 -23 -26 -57 -41 -58 -26 -112 -33 -147
-20 -17 7 -17 9 -4 25 23 25 32 62 16 62 -10 0 -9 3 2 11 12 8 12 12 2 16 -10
4 -10 8 -1 19 10 12 3 14 -39 14 -141 0 -169 95 -40 135 54 17 172 18 218 1z
m495 -60 c31 -9 45 -21 61 -51 19 -38 23 -41 92 -54 86 -16 98 -31 27 -35 -24
-1 -23 -37 3 -76 9 -14 17 -28 17 -31 0 -3 17 -22 38 -41 37 -36 48 -74 24
-84 -8 -3 -40 0 -73 6 -32 6 -69 12 -81 13 -15 2 -19 6 -13 17 5 9 3 23 -6 35
-8 10 -14 27 -14 37 0 10 -4 18 -10 18 -5 0 -10 -4 -10 -10 0 -5 -10 -10 -23
-10 -13 0 -27 -4 -32 -9 -19 -18 -95 -30 -126 -19 -33 11 -36 20 -13 42 8 9
12 16 7 16 -4 0 1 7 11 15 19 15 19 15 -5 15 -20 1 -21 2 -7 10 18 11 14 49
-6 51 -99 10 -145 26 -159 56 -10 23 -8 28 18 49 60 49 190 67 280 40z m587
-78 c29 -8 47 -23 64 -50 13 -21 30 -38 37 -38 21 0 251 -29 280 -36 17 -3 32
-15 37 -29 10 -25 22 -187 25 -340 2 -55 7 -136 13 -180 21 -157 20 -164 -49
-247 -122 -145 -156 -178 -186 -177 -27 0 -27 1 -5 10 13 5 20 14 16 20 -3 6
-8 63 -10 127 -2 65 -6 131 -8 147 -3 17 -8 93 -11 170 -4 77 -11 145 -16 151
-5 7 -14 26 -18 42 -8 25 -5 34 15 53 13 12 24 27 24 33 0 6 -5 5 -12 -2 -15
-15 -59 -15 -92 -1 -24 11 -44 68 -31 89 3 6 -1 10 -10 10 -9 0 -13 -4 -10
-10 6 -10 -6 -14 -36 -11 -8 1 -29 -5 -45 -14 -33 -17 -77 -19 -104 -5 -16 8
-17 15 -8 52 21 88 17 98 -43 98 -36 0 -98 24 -111 44 -38 55 47 106 176 106
43 0 97 -5 118 -12z m-2007 -24 c40 -26 32 -46 -17 -42 -37 3 -43 6 -41 25 2
13 -4 23 -15 26 -9 3 -2 5 16 6 18 0 44 -6 57 -15z m-3886 -446 c13 -36 53
-347 49 -379 -3 -15 0 -25 5 -22 5 3 6 -3 3 -15 -4 -11 -2 -23 4 -27 16 -10
12 -53 -8 -72 -38 -36 -72 -63 -82 -63 -5 0 -7 -7 -4 -15 5 -11 2 -13 -10 -9
-10 4 -16 1 -16 -9 0 -19 -21 -27 -71 -27 -58 0 -68 22 -103 208 -5 28 -2 34
18 42 13 5 39 30 57 57 18 26 36 50 41 51 4 2 8 8 8 14 0 14 -99 4 -135 -14
-43 -23 -68 -53 -86 -106 -10 -30 -22 -48 -35 -51 -22 -4 -40 -24 -59 -67 -13
-28 -20 -32 -72 -40 -32 -4 -62 -7 -66 -6 -5 2 -26 -2 -48 -8 -53 -15 -95 -60
-110 -121 -10 -40 -18 -51 -38 -56 -14 -3 -37 -17 -51 -30 -25 -24 -62 -37
-134 -47 -69 -11 -114 -60 -144 -161 -6 -22 -16 -31 -38 -35 -21 -4 -34 -15
-47 -42 -10 -21 -23 -38 -28 -38 -6 0 -7 -5 -3 -11 4 -8 -5 -9 -32 -5 -40 7
-142 -12 -182 -33 -36 -19 -83 -91 -88 -136 0 -5 -5 -21 -11 -35 -6 -14 -13
-32 -16 -40 -3 -9 -6 -4 -6 12 -1 27 -21 51 -21 25 0 -7 -10 -23 -23 -35 -33
-31 -38 -93 -15 -194 9 -42 17 -58 29 -58 9 0 19 -10 23 -22 4 -18 8 -20 18
-10 9 9 15 8 29 -4 14 -13 20 -13 38 -2 12 7 21 17 21 23 0 12 56 38 71 33 6
-2 -10 -22 -37 -43 -128 -105 -267 -192 -223 -139 8 10 9 18 3 22 -5 4 -11 21
-12 37 -1 17 -6 41 -12 55 -5 14 -16 63 -25 110 -24 139 -42 223 -55 257 -9
26 -9 35 2 46 20 20 477 359 629 467 35 25 115 84 179 131 63 47 171 125 240
174 69 50 132 95 140 102 8 6 62 46 120 89 58 42 133 98 167 123 34 25 69 60
77 76 18 37 56 81 76 88 8 3 32 6 53 6 30 1 39 -3 46 -21z m20989 -120 c6 -13
11 -53 10 -89 0 -37 3 -72 7 -79 5 -8 4 -11 -1 -7 -6 3 -8 -40 -7 -106 2 -62
3 -169 3 -239 0 -69 5 -139 10 -154 6 -15 8 -29 6 -32 -3 -3 -25 3 -50 12
l-44 17 3 62 c2 34 4 191 5 350 l1 287 23 0 c13 0 27 -9 34 -22z m1076 -581
c4 -67 9 -142 11 -167 2 -25 7 -83 10 -130 3 -47 8 -101 11 -120 2 -19 6 -78
9 -130 5 -97 13 -171 22 -202 7 -29 -11 -20 -31 14 -21 34 -21 42 -30 287 -3
90 -8 180 -11 200 -3 20 -7 72 -9 116 -3 44 -7 127 -11 185 -6 93 -5 103 8 87
10 -12 17 -56 21 -140z m-22483 114 c14 -16 31 -42 38 -58 13 -34 13 -135 -1
-127 -6 4 -8 -2 -4 -13 8 -26 -2 -53 -20 -53 -8 0 -14 -7 -14 -15 0 -19 -36
-55 -55 -55 -8 0 -12 -6 -9 -13 3 -9 -6 -13 -31 -13 -28 0 -35 4 -36 21 0 11
-3 14 -6 7 -13 -33 -50 42 -59 125 -4 29 -11 56 -15 59 -19 11 -7 34 26 50 19
9 35 19 35 23 0 4 14 26 31 49 39 53 81 58 120 13z m-355 -249 c28 -15 47 -63
42 -107 -2 -19 -1 -36 3 -37 3 -2 4 -18 1 -37 -3 -23 -7 -29 -13 -20 -7 11 -9
10 -9 -3 0 -9 6 -19 13 -21 7 -4 4 -8 -10 -12 -29 -9 -39 -35 -11 -27 21 5 21
5 0 -16 -12 -12 -26 -22 -32 -22 -5 0 -10 -7 -10 -15 0 -15 -4 -17 -53 -20
-20 -1 -27 2 -23 11 4 10 -3 14 -22 14 -41 0 -63 34 -78 118 -14 81 -11 102
16 102 10 0 25 10 33 23 8 12 29 37 46 54 32 35 63 39 107 15z m-405 -319 c36
-42 48 -68 42 -93 -4 -16 -8 -18 -14 -8 -6 9 -9 5 -9 -14 0 -15 -4 -30 -10
-33 -14 -9 -12 -28 3 -22 6 2 11 10 10 16 -5 21 15 11 21 -11 4 -15 0 -27 -10
-35 -13 -9 -11 -12 14 -18 l29 -6 -36 -37 c-20 -20 -39 -35 -43 -34 -4 1 -5
-4 -2 -11 6 -16 -41 -51 -80 -61 -65 -16 -125 51 -126 140 -1 21 -4 57 -9 79
-9 49 -5 65 19 65 10 0 24 10 32 23 9 12 28 37 44 55 38 43 89 45 125 5z
m23660 -115 c0 -7 2 -22 4 -33 1 -11 10 -96 19 -190 9 -93 23 -235 31 -315 8
-80 19 -197 25 -260 6 -63 13 -131 17 -150 l6 -34 -24 15 c-27 18 -31 36 -48
244 -6 72 -20 229 -31 350 -35 397 -34 385 -16 385 9 0 16 -6 17 -12z m-23961
-242 c0 -3 -4 -8 -10 -11 -5 -3 -10 -1 -10 4 0 6 5 11 10 11 6 0 10 -2 10 -4z
m4911 -471 c159 -24 289 -82 354 -158 45 -53 64 -116 72 -244 6 -101 5 -104
-26 -167 -42 -86 -120 -156 -252 -228 -58 -32 -111 -58 -117 -58 -7 0 -12 -4
-12 -9 0 -5 -18 -11 -40 -15 -23 -3 -39 -10 -36 -14 2 -4 -12 -7 -32 -8 -21 0
-77 -8 -127 -18 -171 -34 -466 -31 -570 5 -150 54 -253 135 -215 173 6 6 3 14
-7 22 -15 10 -15 14 -4 28 12 15 8 20 -11 17 -5 0 -8 4 -8 10 0 6 -15 29 -33
52 -95 118 -79 240 47 361 205 198 647 307 1017 251z m18686 -157 c-3 -8 -6
-5 -6 6 -1 11 2 17 5 13 3 -3 4 -12 1 -19z m-11915 -743 c251 -44 447 -157
517 -297 30 -60 31 -64 31 -206 0 -141 -1 -146 -31 -207 -16 -34 -46 -78 -66
-98 -19 -21 -30 -37 -24 -37 6 0 11 -5 11 -11 0 -6 -9 -8 -22 -4 -17 6 -20 4
-15 -9 4 -9 2 -16 -4 -16 -5 0 -28 -19 -49 -41 -30 -32 -48 -42 -76 -45 -28
-2 -45 -12 -69 -38 -27 -31 -38 -36 -90 -41 -66 -6 -64 -6 -120 -1 -22 2 -47
0 -55 -4 -19 -10 -114 -19 -275 -26 -108 -5 -130 -3 -220 21 -55 15 -107 28
-115 29 -35 6 -51 19 -45 37 7 21 -5 25 -23 7 -9 -9 -12 -9 -12 0 0 7 5 12 10
12 6 0 10 5 10 11 0 12 -17 28 -66 64 -75 55 -104 102 -74 120 13 8 13 45 0
45 -5 0 -7 7 -3 16 4 10 0 22 -8 28 -34 25 -106 124 -123 169 -23 60 -19 164
9 221 11 22 40 61 65 87 181 188 571 277 932 214z m-3811 -245 c269 -28 466
-117 547 -249 37 -60 52 -137 52 -272 0 -87 -3 -102 -30 -156 -88 -176 -347
-321 -660 -368 -179 -28 -425 -15 -554 29 -82 28 -156 66 -167 87 -5 11 -14
17 -19 14 -6 -4 -8 12 -4 39 4 37 0 52 -20 85 -14 21 -33 45 -43 53 -62 45
-123 166 -123 241 1 52 37 143 80 196 122 155 409 277 705 300 55 5 107 9 116
10 9 0 63 -4 120 -9z m13527 -45 c428 -64 763 -266 813 -490 10 -46 9 -72 -6
-167 -20 -131 -41 -186 -87 -229 -38 -36 -116 -88 -170 -112 -25 -12 -35 -22
-32 -32 5 -12 -2 -15 -31 -15 -26 0 -34 4 -30 13 4 6 0 4 -7 -5 -8 -9 -19 -13
-26 -9 -6 4 -38 4 -69 0 -87 -11 -267 -10 -368 1 -218 25 -454 112 -532 197
-27 28 -29 39 -8 47 8 3 15 13 15 22 0 9 8 23 18 30 16 12 15 13 -5 14 -13 0
-23 5 -23 10 0 6 5 10 12 10 6 0 1 9 -12 20 -13 11 -26 20 -30 20 -3 0 -45 38
-91 84 -107 106 -152 188 -152 275 2 126 101 227 283 286 132 44 363 57 538
30z m-6568 -1080 c234 -41 411 -121 529 -237 98 -98 131 -179 131 -328 0 -125
-13 -210 -41 -268 -47 -98 -208 -220 -356 -271 -32 -11 -53 -21 -48 -21 6 0
-3 -7 -19 -15 -33 -17 -48 -20 -26 -4 11 8 8 9 -15 5 -220 -42 -488 -30 -685
30 -142 43 -270 118 -270 158 0 9 -6 16 -12 17 -7 0 -3 5 9 11 27 13 35 44 16
63 -8 8 -11 15 -7 15 4 0 -31 40 -78 88 -59 61 -95 109 -119 157 -30 62 -34
78 -33 150 0 104 26 158 113 245 100 98 231 160 426 200 116 24 364 26 485 5z
m4300 -469 c138 -35 177 -49 287 -101 101 -48 162 -86 241 -154 51 -44 124
-143 151 -205 21 -51 24 -146 7 -266 -29 -202 -92 -289 -270 -375 -123 -60
-238 -86 -409 -92 -183 -8 -353 15 -512 69 -66 22 -167 66 -175 77 -3 3 -18
13 -34 21 -16 8 -31 23 -34 33 -2 9 -9 17 -14 17 -14 0 0 51 18 71 13 15 13
19 -1 33 -9 9 -14 16 -11 16 4 0 -45 51 -107 113 -127 125 -172 198 -187 308
-29 207 150 381 461 448 81 18 120 20 289 17 169 -4 209 -7 300 -30z m-14422
-172 c223 -46 359 -133 433 -276 12 -24 25 -88 36 -177 20 -165 14 -206 -48
-311 -110 -189 -379 -351 -706 -426 -103 -23 -141 -27 -293 -28 -247 -1 -368
24 -503 106 -52 31 -66 45 -62 58 5 15 2 17 -15 13 -11 -3 -20 0 -20 6 0 6 5
11 11 11 7 0 8 11 4 30 -4 19 -3 30 5 30 17 0 -6 37 -62 100 -151 170 -139
355 35 537 168 176 455 302 783 343 94 12 309 3 402 -16z m15539 -1248 c62
-14 145 -38 185 -52 71 -26 258 -115 282 -135 6 -5 40 -31 77 -58 83 -62 150
-136 195 -218 55 -98 68 -158 59 -288 -4 -60 -8 -124 -8 -142 -1 -17 -5 -29
-9 -26 -10 5 -10 -23 -2 -55 4 -13 12 -21 18 -19 7 3 12 -3 13 -12 1 -16 -49
-46 -69 -42 -5 0 -8 -3 -8 -7 0 -8 -37 -53 -87 -106 -51 -53 -235 -129 -393
-162 -119 -25 -382 -26 -500 -1 -109 23 -247 70 -330 113 -66 33 -136 91 -125
102 3 4 10 0 15 -8 6 -8 10 -10 10 -4 0 6 -6 16 -13 22 -8 7 -13 30 -11 62 1
37 -2 50 -13 50 -8 0 -12 4 -9 8 3 5 -11 22 -32 38 -72 55 -200 190 -240 252
-62 96 -85 177 -80 276 3 68 10 91 38 144 65 123 204 220 381 266 135 35 125
35 344 32 176 -3 213 -6 312 -30z m-11167 -386 c250 -39 433 -128 552 -268 91
-106 117 -195 119 -396 1 -158 -11 -211 -73 -313 -58 -96 -238 -255 -343 -303
-128 -59 -268 -104 -362 -116 -29 -4 -51 -9 -49 -13 2 -3 -62 -8 -142 -9 -310
-7 -559 69 -711 218 -26 25 -43 68 -22 55 7 -3 11 2 11 14 0 11 -4 23 -10 26
-17 11 -11 25 8 18 16 -7 16 -6 0 11 -10 9 -18 22 -18 27 0 5 -12 22 -26 37
-48 50 -116 164 -135 226 -23 74 -24 162 -4 241 66 252 384 474 775 540 92 16
342 18 430 5z m5133 -396 c9 -3 17 -10 17 -15 0 -15 -92 0 -110 18 -13 13 -10
14 30 8 25 -3 53 -9 63 -11z m1514 -210 c-3 -3 -12 -4 -19 -1 -8 3 -5 6 6 6
11 1 17 -2 13 -5z m-17 -34 c0 -11 6 -20 13 -20 6 0 4 -5 -6 -11 -10 -6 -39
-8 -70 -4 -42 5 -53 11 -54 25 -1 15 7 20 40 23 23 2 50 4 60 5 11 1 17 -5 17
-18z m-170 0 c0 -5 -4 -10 -9 -10 -6 0 -13 5 -16 10 -3 6 1 10 9 10 9 0 16 -4
16 -10z m1710 -283 c0 -9 -13 -14 -36 -15 -31 -1 -34 1 -24 13 16 19 60 20 60
2z m430 3 c0 -5 11 -10 25 -10 14 0 25 -5 25 -11 0 -6 7 -9 15 -6 8 4 17 2 21
-4 3 -5 14 -7 25 -4 11 4 19 2 19 -4 0 -6 -6 -11 -12 -11 -7 0 -22 -8 -33 -16
-20 -16 -20 -16 3 -9 12 3 22 2 22 -3 0 -24 -31 -31 -123 -28 -76 2 -97 0 -97
-11 0 -7 -6 -13 -12 -13 -7 0 -23 -3 -35 -6 -19 -5 -23 -1 -28 29 -5 24 -14
37 -28 41 -19 6 -17 9 18 21 22 9 50 13 63 10 15 -4 22 -1 22 10 0 9 9 15 24
15 14 0 28 5 31 10 3 6 17 10 31 10 13 0 24 -4 24 -10z m-9635 -200 c3 -5 1
-10 -4 -10 -6 0 -11 5 -11 10 0 6 2 10 4 10 3 0 8 -4 11 -10z"/>
<path d="M4090 14725 c0 -9 -5 -13 -11 -9 -8 5 -8 1 0 -14 6 -12 16 -24 23
-28 7 -4 8 -3 4 4 -4 7 -3 12 2 12 14 0 9 43 -5 48 -7 2 -13 -4 -13 -13z"/>
<path d="M4060 14681 c0 -5 7 -11 14 -14 10 -4 13 -1 9 9 -6 15 -23 19 -23 5z"/>
<path d="M17770 14394 c0 -9 7 -14 17 -12 25 5 28 28 4 28 -12 0 -21 -6 -21
-16z"/>
<path d="M17675 14300 c-10 -16 4 -30 31 -30 17 0 24 5 24 20 0 15 -7 20 -24
20 -14 0 -28 -4 -31 -10z"/>
<path d="M6157 12589 c7 -7 15 -10 18 -7 3 3 -2 9 -12 12 -14 6 -15 5 -6 -5z"/>
<path d="M12426 12183 c-11 -11 -6 -23 9 -23 8 0 15 4 15 9 0 13 -16 22 -24
14z"/>
<path d="M12020 12160 c0 -22 7 -25 29 -11 16 10 6 31 -15 31 -8 0 -14 -9 -14
-20z"/>
<path d="M12428 12143 c6 -2 18 -2 25 0 6 3 1 5 -13 5 -14 0 -19 -2 -12 -5z"/>
<path d="M12294 12084 c4 -12 2 -15 -9 -10 -12 4 -14 0 -9 -22 9 -36 12 -38
34 -24 11 7 19 9 18 5 -2 -5 0 -9 5 -10 18 -7 8 13 -13 23 -12 7 -17 13 -10
16 13 4 3 38 -12 38 -6 0 -7 -7 -4 -16z"/>
<path d="M12715 12040 c-3 -5 1 -10 10 -10 9 0 13 5 10 10 -3 6 -8 10 -10 10
-2 0 -7 -4 -10 -10z"/>
<path d="M11470 12006 c0 -25 6 -38 25 -50 23 -15 29 -14 27 5 -2 13 71 21 78
9 6 -9 9 -9 14 1 5 11 7 11 12 2 6 -14 24 -18 24 -5 0 4 -7 16 -16 27 -13 17
-16 18 -24 5 -8 -13 -10 -12 -10 3 0 14 -5 17 -19 12 -11 -3 -36 1 -56 10 -51
21 -55 20 -55 -19z"/>
<path d="M12856 12025 c-11 -8 -15 -15 -10 -15 5 0 18 -13 27 -30 14 -23 25
-30 50 -30 18 0 43 9 56 19 l24 19 -24 7 c-13 4 -27 12 -30 18 -4 5 -18 10
-33 10 -14 0 -26 3 -26 8 0 13 -12 11 -34 -6z"/>
<path d="M12360 12014 c0 -7 7 -14 15 -14 8 0 15 -9 15 -20 0 -13 10 -24 26
-30 33 -13 34 -13 34 4 0 19 22 25 37 10 7 -7 23 -10 35 -6 l23 6 -25 8 c-17
5 -9 7 25 4 28 -2 42 -2 32 1 -14 4 -16 8 -6 19 8 10 8 14 0 14 -6 0 -11 -4
-11 -8 0 -9 -105 4 -123 15 -5 3 -24 7 -43 9 -25 2 -34 -1 -34 -12z"/>
<path d="M12465 11940 c3 -5 8 -10 11 -10 2 0 4 5 4 10 0 6 -5 10 -11 10 -5 0
-7 -4 -4 -10z"/>
<path d="M12905 11890 c-3 -5 1 -10 10 -10 9 0 13 5 10 10 -3 6 -8 10 -10 10
-2 0 -7 -4 -10 -10z"/>
<path d="M24520 12119 c-13 -9 -12 -10 2 -5 10 3 20 1 23 -4 3 -5 12 -7 20 -4
8 4 12 10 9 15 -7 12 -36 11 -54 -2z"/>
<path d="M24198 12023 c7 -3 16 -2 19 1 4 3 -2 6 -13 5 -11 0 -14 -3 -6 -6z"/>
<path d="M16419 11604 c0 -11 -3 -14 -5 -8 -7 16 -66 4 -60 -12 3 -7 1 -16 -5
-20 -6 -4 -4 -15 6 -30 8 -13 11 -24 5 -24 -5 0 -9 -9 -7 -20 4 -27 17 -38 17
-14 0 15 2 16 9 4 6 -8 7 -18 4 -23 -3 -5 3 -7 13 -5 11 2 18 9 17 15 -1 6 11
13 27 17 29 5 30 7 30 66 0 33 -4 60 -9 60 -5 0 -16 3 -25 6 -11 4 -16 0 -17
-12z"/>
<path d="M26007 10956 c-4 -9 -14 -12 -26 -9 -11 3 -28 3 -36 -1 -13 -5 -12
-11 7 -41 20 -31 28 -35 57 -33 29 3 36 8 43 33 11 41 -31 88 -45 51z"/>
<path d="M26165 10788 c-11 -6 -22 -12 -24 -14 -7 -6 31 -36 57 -44 24 -7 25
-8 5 -9 -26 -1 -29 -11 -11 -29 19 -19 46 -14 60 11 14 26 12 55 -7 74 -19 18
-25 16 -26 -9 l0 -23 -9 21 c-12 30 -22 34 -45 22z"/>
<path d="M16348 10783 c7 -3 16 -2 19 1 4 3 -2 6 -13 5 -11 0 -14 -3 -6 -6z"/>
<path d="M23844 10559 c-4 -7 -3 -9 4 -5 5 3 13 0 15 -6 4 -9 6 -10 6 -1 1 17
-16 25 -25 12z"/>
<path d="M8188 8523 c7 -3 16 -2 19 1 4 3 -2 6 -13 5 -11 0 -14 -3 -6 -6z"/>
<path d="M10306 8265 c-11 -8 -17 -17 -14 -20 2 -3 13 4 23 15 21 23 18 25 -9
5z"/>
<path d="M10195 8140 l-17 -35 22 23 c12 12 20 28 17 35 -2 7 -12 -4 -22 -23z"/>
<path d="M4121 7494 c0 -11 3 -14 6 -6 3 7 2 16 -1 19 -3 4 -6 -2 -5 -13z"/>
<path d="M7750 5704 c9 -37 7 -52 -13 -91 -6 -13 -8 -26 -5 -29 10 -10 38 58
38 92 0 37 -8 64 -20 64 -4 0 -4 -16 0 -36z"/>
<path d="M14625 4783 c25 -59 28 -101 10 -157 -21 -66 -56 -113 -117 -160 -41
-31 -125 -74 -176 -91 -13 -4 -22 -9 -19 -11 4 -4 149 47 157 56 3 3 22 14 44
25 50 26 131 115 146 161 21 62 -2 175 -37 189 -11 4 -13 1 -8 -12z"/>
<path d="M13580 4101 c0 -5 7 -11 14 -14 10 -4 13 -1 9 9 -6 15 -23 19 -23 5z"/>
<path d="M10876 4500 c17 -101 -2 -147 -98 -243 -78 -77 -62 -75 25 3 75 68
101 118 101 193 -1 42 -6 63 -18 75 -17 16 -18 15 -10 -28z"/>
<path d="M24520 4490 c0 -5 5 -10 11 -10 5 0 7 5 4 10 -3 6 -8 10 -11 10 -2 0
-4 -4 -4 -10z"/>
<path d="M24550 4463 c0 -7 14 -39 30 -71 30 -60 37 -106 24 -171 -8 -38 -74
-109 -124 -133 -21 -11 -28 -18 -17 -18 25 0 90 35 131 71 66 57 83 169 38
239 -24 39 -82 96 -82 83z"/>
<path d="M17847 3368 c28 -53 43 -101 43 -139 0 -42 -29 -139 -42 -139 -4 0
-8 -6 -8 -13 0 -36 -160 -151 -254 -181 -10 -4 -16 -9 -13 -13 17 -16 189 71
252 129 121 110 138 258 41 363 -32 34 -40 31 -19 -7z"/>
<path d="M22150 2893 c0 -6 13 -37 28 -68 35 -70 41 -157 17 -230 -18 -51 -79
-125 -130 -156 -16 -11 -25 -19 -19 -19 15 0 126 73 145 96 8 10 26 37 39 59
34 56 34 160 0 227 -23 47 -80 111 -80 91z"/>
<path d="M7565 2672 c-1 -65 -5 -86 -29 -132 -32 -62 -146 -184 -189 -201 -15
-6 -25 -14 -23 -17 3 -2 20 4 39 15 154 91 255 255 229 372 -14 62 -27 44 -27
-37z"/>
<path d="M7276 2293 c-6 -14 -5 -15 5 -6 7 7 10 15 7 18 -3 3 -9 -2 -12 -12z"/>
<path d="M23340 1416 c0 -3 13 -30 30 -62 36 -70 54 -153 46 -213 -13 -92 -75
-187 -161 -244 -53 -36 -33 -34 30 2 113 65 177 159 178 261 0 57 -22 162 -33
155 -3 -2 -12 10 -19 26 -17 38 -71 95 -71 75z"/>
<path d="M12109 1032 c7 -13 15 -62 18 -110 5 -76 3 -94 -18 -142 -38 -91 -73
-136 -189 -241 l-35 -32 35 19 c79 43 163 132 210 224 44 85 37 243 -13 287
-20 18 -20 18 -8 -5z"/>
<path d="M8249 677 c10 -13 12 -39 9 -100 -6 -119 -50 -201 -175 -324 -51 -51
-100 -93 -108 -93 -8 0 -15 -5 -15 -11 0 -24 141 82 207 155 58 64 111 174
119 246 6 61 -11 130 -36 138 -13 5 -13 3 -1 -11z"/>
</g>
</svg>
